<?xml version="1.0" encoding="UTF-8" standalone="no"?>
<svg width="14px" height="14px" viewBox="0 0 14 14" version="1.1" xmlns="http://www.w3.org/2000/svg" xmlns:xlink="http://www.w3.org/1999/xlink">
    <!-- Generator: Sketch 46 (44423) - http://www.bohemiancoding.com/sketch -->
    <title>search</title>
    <desc>Created with Sketch.</desc>
    <defs></defs>
    <g id="Page-1" stroke="none" stroke-width="1" fill="none" fill-rule="evenodd">
        <g id="Beauty-&amp;-Spas-Dropdown-Copy-3" transform="translate(-1007.000000, -243.000000)" fill="#003D99">
            <g id="search" transform="translate(1007.000000, 243.000000)">
                <path d="M9.67469076,5.14775449 L9.07672247,5.14775449 L8.86886448,5.35410626 C9.60314544,6.21039083 10.0497389,7.32047303 10.0497389,8.53674355 C10.0497389,11.2404037 7.85819263,13.43195 5.15453246,13.43195 C2.4508723,13.43195 0.259326041,11.2404037 0.259326041,8.53674355 C0.259326041,5.83308338 2.4508723,3.64153712 5.15453246,3.64153712 C6.37080298,3.64153712 7.48013207,4.08737746 8.33641664,4.82090532 L8.54427463,4.61455354 L8.54427463,4.01809146 L12.3083118,0.259326041 L13.4311969,1.38221108 L9.67469076,5.14775449 L9.67469076,5.14775449 Z M5.15453246,5.14775449 C3.28230428,5.14775449 1.7655434,6.66451537 1.7655434,8.53674355 C1.7655434,10.4082186 3.28230428,11.9257326 5.15453246,11.9257326 C7.02600753,11.9257326 8.54352153,10.4082186 8.54352153,8.53674355 C8.54352153,6.66451537 7.02600753,5.14775449 5.15453246,5.14775449 L5.15453246,5.14775449 Z" id="Shape" transform="translate(6.845261, 6.845638) scale(1, -1) translate(-6.845261, -6.845638) "></path>
            </g>
        </g>
    </g>
</svg>